<svg xmlns="http://www.w3.org/2000/svg" width="239" height="33" viewBox="0 0 239 33" fill="none"><g clip-path="url(#clip0_124_617)"><path d="M26.9777 6.87128H20.6798V19.2899H26.9777V6.87128Z" fill="url(#paint0_linear_124_617)"></path><path d="M4.74638 6.87332L0.00256348 11.4679L22.2274 32.9933L26.9712 28.3987L4.74638 6.87332Z" fill="#AFFC41"></path><path d="M6.29786 20.5813H0V33H6.29786V20.5813Z" fill="url(#paint1_linear_124_617)"></path><path d="M46.8189 6.87128V11.5902H46.995C49.4353 7.85406 53.1754 6.29462 56.6808 6.29462C62.9786 6.29462 66.6601 9.80335 66.6601 16.5366V32.9919H63.2134V16.8777C63.2134 11.7527 60.3622 9.11298 56.3202 9.11298C51.6827 9.11298 47.2298 12.2237 47.2298 18.892V32.9919H43.7831V6.87128H46.8105H46.8189Z" fill="#072AC8"></path><path d="M83.65 6.29462C92.2624 6.29462 96.5393 12.508 96.4806 19.1275V20.224H74.0229C74.1991 26.5511 78.1824 30.1167 84.0022 30.1167C88.9919 30.1167 92.2037 27.5257 92.8578 23.4403H96.1871C95.4155 28.6791 91.2561 33.0487 83.9519 32.935C75.2221 32.935 70.526 27.4689 70.526 19.5255C70.526 12.1019 76.1698 6.29462 83.6584 6.29462H83.65ZM74.1487 17.8036H93.0423C92.623 12.6217 89.1848 8.99927 83.5997 8.99927C78.3753 8.99927 74.6854 12.6217 74.1571 17.8036H74.1487Z" fill="#072AC8"></path><path d="M114.116 32.537C113.102 32.8213 111.802 33 110.493 33C104.85 33 102.653 29.7755 102.653 25.1135V9.51907H97.8391V6.87128H102.653V0H106.099V6.87128H113.764V9.51907H106.099V24.7642C106.099 28.2729 107.349 30.1167 110.795 30.1167C111.927 30.1167 113.11 30.003 114.125 29.6537V32.5289L114.116 32.537Z" fill="#072AC8"></path><path d="M144.172 19.6635C144.172 27.3389 138.268 33 129.655 33C120.573 33 115.081 27.2902 115.081 19.6635C115.081 12.0369 121.152 6.27835 129.655 6.27835C138.159 6.27835 144.172 12.045 144.172 19.6635ZM122.427 19.5498C122.427 24.0901 125.026 27.3958 129.655 27.3958C134.284 27.3958 136.943 23.9195 136.943 19.5498C136.943 15.1801 134.167 11.8745 129.655 11.8745C125.144 11.8745 122.427 15.3507 122.427 19.5498Z" fill="#072AC8"></path><path d="M154.377 6.94436V10.3069L154.612 10.3638C157.212 7.28549 160.507 6.27835 163.401 6.27835C169.883 6.27835 173.237 9.9739 173.237 16.4147V33H166.009V17.8767C166.009 14.2948 164.331 12.0531 161.262 12.0531C157.849 12.0531 155.015 14.3517 155.015 19.5011V33H147.727V6.94436H154.377Z" fill="#072AC8"></path><path d="M206.203 0V32.3827H199.435V29.1907L199.15 29.1339C197.07 31.8792 193.137 33 190.068 33C181.967 33 176.877 27.68 176.877 20.0047C176.877 12.3293 182.026 6.27837 190.177 6.27837C192.835 6.27837 196.131 6.9525 198.622 9.29978L198.907 9.18607V0H206.194H206.203ZM184.223 19.7204C184.223 24.2038 186.881 27.3389 191.452 27.3389C195.728 27.3389 198.622 23.9764 198.622 19.6635C198.622 15.5781 196.072 12.045 191.334 12.045C186.999 12.045 184.223 15.5781 184.223 19.7204Z" fill="#072AC8"></path><path d="M232.233 10.3069H232.291L232.35 7.00122H239V32.4314H232.291V29.012C230.035 31.3675 226.907 32.935 223.033 32.935C214.53 32.935 209.792 27.5013 209.792 19.826C209.792 12.1506 215.058 6.4408 223.092 6.4408C226.564 6.4408 230.203 7.78906 232.233 10.3069ZM217.196 19.6067C217.196 24.0901 219.855 27.3389 224.484 27.3389C229.113 27.3389 231.713 23.9195 231.713 19.6067C231.713 15.57 228.937 12.045 224.484 12.045C220.031 12.045 217.196 15.5213 217.196 19.6067Z" fill="#072AC8"></path></g><defs><linearGradient id="paint0_linear_124_617" x1="23.8245" y1="18.8189" x2="23.8245" y2="7.76471" gradientUnits="userSpaceOnUse"><stop stop-color="#AFFC41" stop-opacity="0"></stop><stop offset="1" stop-color="#AFFC41"></stop></linearGradient><linearGradient id="paint1_linear_124_617" x1="3.14474" y1="21.1093" x2="3.14474" y2="32.2528" gradientUnits="userSpaceOnUse"><stop stop-color="#AFFC41" stop-opacity="0"></stop><stop offset="1" stop-color="#AFFC41"></stop></linearGradient><clipPath id="clip0_124_617"><rect width="239" height="33" fill="white"></rect></clipPath></defs></svg>